HIERARCHY
ROOT base
{
	OFFSET 0.0 0.0 0.0
	CHANNELS 6 Xposition Yposition Zposition Zrotation Yrotation Xrotation
	JOINT root
	{
		OFFSET 0 0 0
		CHANNELS 6 Xposition Yposition Zposition Zrotation Yrotation Xrotation
		JOINT chest
		{
			OFFSET 0 4.72302 0
			CHANNELS 3 Zrotation Yrotation Xrotation
			JOINT neck
			{
				OFFSET 0 4.47788 0
				CHANNELS 3 Zrotation Yrotation Xrotation
				End Site
				{
					OFFSET 0.0 0.0 0.0
				}
			}
			JOINT right_shoulder
			{
				OFFSET -0.481 4.87 3.6622
				CHANNELS 3 Zrotation Yrotation Xrotation
				JOINT right_elbow
				{
					OFFSET 0 -5.49576 0
					CHANNELS 3 Zrotation Yrotation Xrotation
					JOINT right_wrist
					{
						OFFSET 0 -5.17894 0
						CHANNELS 3 Zrotation Yrotation Xrotation
						End Site
						{
							OFFSET 0.0 0.0 0.0
						}
					}
				}
			}
			JOINT left_shoulder
			{
				OFFSET -0.481 4.87 -3.6622
				CHANNELS 3 Zrotation Yrotation Xrotation
				JOINT left_elbow
				{
					OFFSET 0 -5.49576 0
					CHANNELS 3 Zrotation Yrotation Xrotation
					JOINT left_wrist
					{
						OFFSET 0 -5.17894 0
						CHANNELS 3 Zrotation Yrotation Xrotation
						End Site
						{
							OFFSET 0.0 0.0 0.0
						}
					}
				}
			}
		}
		JOINT right_hip
		{
			OFFSET 0 0 1.69774
			CHANNELS 3 Zrotation Yrotation Xrotation
			JOINT right_knee
			{
				OFFSET 0 -8.43092 0
				CHANNELS 3 Zrotation Yrotation Xrotation
				JOINT right_ankle
				{
					OFFSET 0 -8.1974 0
					CHANNELS 3 Zrotation Yrotation Xrotation
					End Site
					{
						OFFSET 0.0 0.0 0.0
					}
				}
			}
		}
		JOINT left_hip
		{
			OFFSET 0 0 -1.69774
			CHANNELS 3 Zrotation Yrotation Xrotation
			JOINT left_knee
			{
				OFFSET 0 -8.43092 0
				CHANNELS 3 Zrotation Yrotation Xrotation
				JOINT left_ankle
				{
					OFFSET 0 -8.1974 0
					CHANNELS 3 Zrotation Yrotation Xrotation
					End Site
					{
						OFFSET 0.0 0.0 0.0
					}
				}
			}
		}
	}
	JOINT red_arrow
	{
		OFFSET 0 0 0
		CHANNELS 3 Zrotation Yrotation Xrotation
		End Site
		{
			OFFSET 0.0 0.0 0.0
		}
	}
	JOINT blue_arrow
	{
		OFFSET 0 0 0
		CHANNELS 3 Zrotation Yrotation Xrotation
		End Site
		{
			OFFSET 0.0 0.0 0.0
		}
	}
}
MOTION
Frames: 7
Frame Time: 0.0333333333333333
76.4749062359333 0 -9.22335580587387 0 0.283440879830766 0 0 16.2933117747307 0 -19.7849785589957 7.38401819314596 -4.7433334797242 -17.3595358247259 3.09537483159906 -4.30973505051061 -11.7863418661912 -4.0471571897526 -9.3164650814212 14.1729676099237 8.834214187888 -21.2716246357909 86.8819118653406 0 0 0 0 0 -25.3652574207835 2.53999995022633 17.6753338010957 65.9096999056006 0 0 0 0 0 1.1900966840424 -3.73547601801387 -3.1424170281636 -86.1118285269892 0 0 -13.7341242324854 0.0406668311649314 -0.610513578537597 52.1805403680741 -4.91398542589211 -5.73560480500996 -36.3073151182122 0 0 4.54599003554281 12.9354524450658 4.3036063015924 0 0 0 0 0 0
78.3621110320091 0 -9.70676129162312 0 0.819156186350653 0 0 16.4202793121338 0 -21.8659477489324 9.46005329456394 -3.70771998149536 -15.1174463853713 2.52296726603563 -4.37084944098531 -10.2340677904149 -2.21935843352941 -7.23964698221983 1.20110767606989 10.4371643198269 -17.5291451803577 72.8802358026788 0 0 0 0 0 -4.97832296884497 -7.99810692606325 13.4158301975745 70.1619980979321 0 0 0 0 0 17.3917532015504 -6.06289039581495 -7.65519630975605 -99.7822950564188 0 0 -3.4510988656948 -3.472635028293 5.5360165047602 48.47955775036 -1.79846818105928 -7.98617442039347 -39.436504814751 0 0 13.3230413048625 8.77322879087239 6.31655697127415 0 0 0 0 0 0
80.0112576603889 0 -10.1679097481072 0 1.4520034426523 0 0 16.7532014727592 0 -26.4320872824129 10.798337194102 -2.85761423170019 -9.85634938691754 0.467491834799859 -3.83697875351908 -8.19027477220814 3.34436472634742 -6.66884791820972 -17.2793502745627 19.848645038998 -22.9184919197801 58.6116017963069 0 0 0 0 0 15.861562642518 -22.5457275087096 20.605503147251 77.2175220388527 0 0 0 0 0 43.0866733221179 -1.48525034413072 -12.890491711864 -110.497516316902 0 0 9.75340555046184 -4.36690008282633 20.1109099404008 42.9958579515107 0.873791059974016 -9.60814611191648 -32.8971007033678 0 0 16.2239570503953 4.15317166476613 7.24482731268763 0 0 0 0 0 0
81.9332611322403 0 -10.5207592904568 0 2.04584111261566 0 0 17.2413311839104 0 -27.6806981863913 10.0193825222776 -3.60929097742661 -8.16166870481789 -0.685212722258154 -2.3996154594497 -5.06144473233454 8.66008066231562 -5.03047192788997 -36.9412355944717 24.9444356997574 -33.196106992722 50.3991804137695 0 0 0 0 0 32.4738907053856 -37.2724810017721 34.6210890456914 84.4039328948383 0 0 0 0 0 63.7695650841468 3.45696127615882 -11.3032600406451 -111.409312420153 0 0 21.6773507494285 -7.2678366254125 29.1551342178131 29.0711310876681 -0.537428320186593 -8.26251567547306 -15.8830141035014 0 0 13.9017182594377 2.453336604014 6.79934269973267 0 0 0 0 0 0
84.0323412954807 0 -10.7882565706968 0 2.52550236037127 0 0 17.7186936497688 0 -28.5647971161237 8.01964132666641 -5.47112384033577 -6.35370543933716 -1.58109898086987 -1.38947115188608 -2.72227203771986 8.15473590947929 -3.30242272714589 -47.6513419113618 18.8960850167075 -38.6635227962769 48.6430021743759 0 0 0 0 0 38.1892549324042 -47.7898025764176 50.7772852178657 91.2643046707934 0 0 0 0 0 75.2382803264082 0.979922307029753 -7.82779710297304 -99.3306761183084 0 0 26.0940458727366 -10.3309163478501 27.4995655335207 17.6346439066656 -0.657878819277138 -5.06240488543174 -3.6798608917664 0 0 2.09320194035804 3.01228395130903 5.5815907417752 0 0 0 0 0 0
86.2139693260193 0 -11.1194044470787 0 2.9867902825646 0 0 18.1599272489548 0 -27.8799974330618 7.76036111558101 -5.84242419855038 -7.58015741836271 -4.16221520189414 -1.02781637212624 -1.7148502459459 6.32540884336334 -2.5558013825287 -50.5998798509415 9.38545068519313 -38.7488701175064 54.6714466641396 0 0 0 0 0 36.6284133299311 -50.4747526553687 62.7946181443819 96.6738281538218 0 0 0 0 0 77.1227658021575 -5.65254363698164 -8.08922588016568 -78.5910662507531 0 0 23.5138372887812 -9.23750265144704 22.6105006646498 9.16869167441837 -0.919917294132338 -3.44593200885323 -0.983133800593639 0 0 -18.8791126637427 2.6338491065704 3.40653877533016 0 0 0 0 0 0
88.4761768817902 0 -11.5844008028507 0 3.47601995287111 0 0 18.302888071537 0 -25.363955430275 8.41282662095885 -4.66132438707486 -10.2589884496789 -7.48838001820089 -0.252959297957353 -0.786491974381485 5.25326289474907 -2.0125606774335 -54.2968516171224 -0.74535387729153 -39.6482620348755 60.8544993159557 0 0 0 0 0 32.0926281340199 -48.3468705258738 69.1005804689589 98.3858014089072 0 0 0 0 0 75.9542104983361 -10.3890586670518 -9.47543557873394 -59.5110830684843 0 0 19.8229301271561 -7.38288213464794 17.7633027563415 0.251189149982638 -0.115447462029868 -3.43127458834913 -3.5958414541256 0 0 -34.0393284550681 1.01196125740293 -2.32095341418801 0 0 0 0 0 0
